<svg width="160" height="160" viewBox="0 0 160 160" fill="none" xmlns="http://www.w3.org/2000/svg">
<path d="M131.333 86L93.3334 124H78.0001V108.667L116 70.6667L131.333 86ZM154 80.6667C154 82.6667 152 84.6667 150 86.6667L133.333 103.333L127.333 97.3334L144.667 80L140.667 76L136 80.6667L120.667 65.3334L135.333 51.3334C136.667 50 139.333 50 141.333 51.3334L150.667 60.6667C152 62 152 64.6667 150.667 66.6667C149.333 68 148 69.3334 148 70.6667C148 72 149.333 73.3334 150.667 74.6667C152.667 76.6667 154.667 78.6667 154 80.6667ZM20.0001 133.333V26.6667H66.6667V60H100V70L113.333 56.6667V53.3334L73.3334 13.3334H20.0001C12.6667 13.3334 6.66675 19.3334 6.66675 26.6667V133.333C6.66675 140.667 12.6667 146.667 20.0001 146.667H100C107.333 146.667 113.333 140.667 113.333 133.333H20.0001ZM73.3334 114C72.0001 114 70.6667 114.667 70.0001 114.667L66.6667 100H56.6667L42.6667 111.333L46.6667 93.3334H36.6667L30.0001 126.667H40.0001L59.3334 109.333L63.3334 124.667H70.0001L73.3334 124V114Z" fill="url(#paint0_linear_143_13491)"/>
<defs>
<linearGradient id="paint0_linear_143_13491" x1="80.3988" y1="13.3334" x2="80.3988" y2="146.667" gradientUnits="userSpaceOnUse">
<stop stop-color="#036BFB"/>
<stop offset="1" stop-color="#1CC4F8"/>
</linearGradient>
</defs>
</svg>
