<svg width="160" height="160" viewBox="0 0 160 160" fill="none" xmlns="http://www.w3.org/2000/svg">
<path d="M79.9251 13.9888C77.9951 13.9888 76.0648 14.4213 74.5698 15.2863L26.8345 42.8988C23.8438 44.6288 23.8438 47.3644 26.8345 49.0944L74.5698 76.7069C77.5604 78.4369 82.2895 78.4369 85.2798 76.7069L133.015 49.0944C136.006 47.3647 136.006 44.6288 133.015 42.8991L85.2798 15.2866C83.7845 14.421 81.8548 13.9888 79.9251 13.9888ZM79.6676 30.5856C82.4841 30.616 85.0166 31.2613 87.2645 32.5206C88.802 33.3825 89.8091 34.3653 90.2851 35.47C90.7454 36.566 90.7726 38.0106 90.3663 39.8028L89.8663 41.586C89.5351 42.8619 89.4663 43.7797 89.6601 44.3391C89.8382 44.8903 90.2798 45.3635 90.9857 45.7591L92.0451 46.3522L81.6591 52.171L80.5051 51.525C79.2182 50.8044 78.3976 49.99 78.0416 49.0813C77.6704 48.1641 77.7323 46.7053 78.2273 44.7047L78.7035 42.9085C78.9807 41.8388 79.0076 40.9616 78.7848 40.2778C78.5807 39.5828 78.1179 39.0331 77.396 38.6288C76.2976 38.0131 74.9816 37.7925 73.4491 37.9653C71.9004 38.1297 70.3016 38.6741 68.6523 39.5981C67.0985 40.4685 65.6876 41.5581 64.4179 42.8669C63.1329 44.1675 62.0304 45.6556 61.1095 47.3319L53.7188 43.1906C55.3807 41.5219 57.0135 40.0625 58.6176 38.8116C60.222 37.5616 61.9157 36.4366 63.6995 35.4366C68.3795 32.8147 72.7316 31.2553 76.7557 30.7594C77.7215 30.6353 78.6945 30.5771 79.6682 30.5853L79.6676 30.5856ZM95.5291 48.3044L103.909 52.9994L93.5229 58.8181L85.1429 54.1235L95.5291 48.3044ZM23.647 54.325C21.8491 54.2766 20.627 55.68 20.627 58.1625V107.443C20.627 110.896 22.9926 114.993 25.9832 116.721L71.8988 143.236C74.8895 144.963 77.2551 143.597 77.2551 140.143V90.8625C77.2551 87.4088 74.8895 83.3125 71.8988 81.585L25.9832 55.0703C25.1426 54.5844 24.3504 54.3431 23.647 54.3244V54.325ZM136.389 54.3256C135.685 54.3444 134.894 54.585 134.053 55.071L88.1357 81.5856C85.1451 83.3128 82.7795 87.41 82.7795 90.8638V140.145C82.7795 143.598 85.1451 144.963 88.1357 143.236L134.053 116.722C137.044 114.995 139.409 110.898 139.409 107.444V58.1631C139.409 55.6813 138.187 54.2781 136.389 54.3263V54.3256ZM35.9057 74.2481C37.9535 74.675 39.8238 75.1975 41.5163 75.8147C43.213 76.4341 44.8525 77.2 46.4163 78.1038C50.5454 80.4881 53.6932 83.205 55.8595 86.2544C58.0257 89.2856 59.1088 92.5188 59.1088 95.9544C59.1088 97.7169 58.7791 99.1088 58.1188 100.131C57.4588 101.134 56.3332 101.978 54.7426 102.66L53.1176 103.26C51.967 103.711 51.2135 104.175 50.8582 104.654C50.5029 105.114 50.3254 105.748 50.3254 106.558V107.772L41.1613 102.48V101.158C41.1613 99.6831 41.4401 98.5406 41.9988 97.73C42.5573 96.9013 43.7338 96.1238 45.5276 95.3966L47.1526 94.7697C48.1173 94.3916 48.8195 93.916 49.2595 93.3425C49.7157 92.7791 49.9445 92.0838 49.9445 91.2563C49.9445 89.9978 49.5382 88.7828 48.7257 87.6125C47.9132 86.4238 46.7798 85.4094 45.3241 84.5688C43.9532 83.7775 42.4723 83.2281 40.8813 82.9213C39.2907 82.5963 37.632 82.5294 35.9057 82.7197V74.2481ZM120.137 76.9378C120.613 76.9378 121.053 76.9894 121.459 77.0919C123.626 77.6219 124.709 79.6044 124.709 83.04C124.709 84.8025 124.379 86.5756 123.719 88.3597C123.059 90.1253 121.933 92.2681 120.343 94.7872L118.718 97.2635C117.567 99.0431 116.814 100.377 116.458 101.266C116.103 102.136 115.925 102.976 115.925 103.785V104.999L106.761 110.291V108.969C106.761 107.494 107.041 106.028 107.599 104.573C108.158 103.099 109.334 100.963 111.128 98.1653L112.753 95.6622C113.717 94.1697 114.419 92.8828 114.859 91.8016C115.316 90.7103 115.544 89.751 115.544 88.9235C115.544 87.6647 115.138 86.9191 114.326 86.6866C113.514 86.4366 112.379 86.7309 110.924 87.571C109.553 88.3625 108.073 89.5241 106.482 91.0538C104.891 92.5663 103.233 94.4138 101.506 96.5975V88.1256C103.554 86.1881 105.424 84.5506 107.116 83.2138C108.809 81.8769 110.442 80.7544 112.016 79.846C115.371 77.9085 118.078 76.9391 120.138 76.9375L120.137 76.9378ZM41.161 106.474L50.3254 111.764V121.369L41.1613 116.079V106.474L41.161 106.474ZM115.925 108.993V118.597L106.761 123.888V114.284L115.925 108.993Z" fill="url(#paint0_linear_143_13497)"/>
<defs>
<linearGradient id="paint0_linear_143_13497" x1="80.0177" y1="13.9888" x2="80.0177" y2="143.983" gradientUnits="userSpaceOnUse">
<stop stop-color="#036BFB"/>
<stop offset="1" stop-color="#1CC4F8"/>
</linearGradient>
</defs>
</svg>
