<svg width="20047" height="20060" viewBox="0 0 20047 20060" fill="none" xmlns="http://www.w3.org/2000/svg">
<g clip-path="url(#clip0_637_19)">
<path d="M10023.3 0C4487.61 0 0 4487.64 0 10023.3C0 15559 4487.61 20046.6 10023.3 20046.6C15558.9 20046.6 20046.6 15559 20046.6 10023.3C20046.6 4487.64 15558.9 0 10023.3 0Z" fill="url(#paint0_linear_637_19)"/>
<path d="M9587.32 6528.66C9587.32 6528.66 9079.04 6591.2 8844.45 7185.53C8609.83 7779.85 8461.25 8374.18 8594.21 8507.1C8727.12 8640.05 9337.11 8718.26 9337.11 8718.26C9337.11 8718.26 10040.9 7091.71 9587.32 6528.66Z" fill="#F29B91"/>
<path d="M10361.9 5085.12C10361.9 5085.12 10593 4520.35 11067.9 4866.85C11542.9 5213.5 11928 5521.52 12120.5 5803.99C12313.1 6086.3 13070.4 6843.79 13417 7061.92C13763.6 7280.19 13879.2 7498.39 14071.8 8538.17C14264.2 9577.94 14392.6 10553.5 14572.3 10990C14752 11426.4 14559.4 11850 14187.2 12260.8C13815 12671.6 11247.6 14186.3 11183.5 15444.3C11119.2 16702.3 10981.8 17613.6 10981.8 17613.6L6562.23 17549.5C6562.23 17549.5 6242.2 15826.2 6409.16 14295.5C6558.37 12927.6 7405.27 12327.4 8205.34 10964.3C8551.92 10373.8 9155.24 9911.68 9219.46 8551C9283.62 7190.3 9026.9 5175.02 9822.78 5046.64C9822.78 5046.64 10140 4937.29 10361.9 5085.12Z" fill="#FFBDAE"/>
<path d="M11318.6 5897.72C11316 5892.32 11314.3 5888.06 11311.7 5882.81L11318.6 5897.72ZM11582 8869.43C11729.5 8593.84 12001.2 8465.38 12193.2 8409.1C13002.4 8517.6 13916.7 8968.8 13916.7 8968.8C13492.1 8567.13 12679.1 8348.6 12337.1 8270.73C12226 8065.35 12136.7 7630.57 12084.9 7327.23C12296.9 7285.5 13068.3 7104.91 13420.1 6627.83C13420.1 6627.83 12634.7 7005.12 12037.2 7021.82C12037 7020.16 12035.6 7010.99 12035.6 7010.99C11747.8 6743.24 11482.2 6244.45 11321.4 5903.4C11322.2 5903.26 12080.1 5785.39 12316.6 5344.3C12316.6 5344.3 11939.6 5708.28 11274.7 5801.44C11206.3 5650.2 11163.4 5543.55 11163.4 5543.55C11236.7 4051.72 10362 3934.28 10362 3934.28C11370.3 4403.76 11073.6 5755.57 11073.6 5755.57C11073.6 5755.57 11106.2 6146.81 11106.2 6671.5C11106.2 7196.11 11114.5 8054.47 11179.7 8299.06C11244.9 8543.64 11513.8 9024.62 11513.8 9024.62C12213.5 9018.22 13340.8 9555.5 13340.8 9555.5C12835.4 8974.21 11611.8 8871.89 11582 8869.43Z" fill="#F29B91"/>
<path d="M11433.7 15653.8V19948.1C10977 20020.5 10506.3 20059.6 10027.3 20059.6C8576.47 20059.6 7202.53 19819.3 5993.92 19203.8L5997.72 15653.8H11433.7Z" fill="#FF9411"/>
<path d="M13879.8 2170.35H6482.62C6482.62 2785.54 5983.91 3284.28 5368.71 3284.28V6885.97C5983.91 6885.97 6482.62 7384.72 6482.62 7999.89H13879.8C13879.8 7384.72 14378.5 6885.97 14993.7 6885.97V3284.28C14378.5 3284.28 13879.8 2785.54 13879.8 2170.35Z" fill="white"/>
<path d="M11513.8 9024.62C11513.8 9024.62 11263.2 8524.09 11194.5 8345.93C11125.7 8167.68 11106.7 6886.91 11095.3 6606.17C11083.9 6325.42 11099.7 4962.29 11095.2 4752.83C11085.8 4323.39 10769.3 3527.56 9822.78 3895.79C8876.29 4264.03 9142.79 6422.21 9224.98 7254.99C9307.19 8087.73 9149.61 9337.07 9149.61 9337.07L11513.8 9024.62Z" fill="#FFBDAE"/>
<path d="M7441.49 2570.62H7074.57L7481.6 3069.95L7064.08 3569.28H7434.7L7687.43 3250.51H7697.92L7950.35 3569.28H8323.74L7904.37 3069.95L8310.78 2570.62H7946.34L7697.92 2886.19H7687.43L7441.49 2570.62Z" fill="#E92424"/>
<path d="M9051.46 2575.62H8684.55L9091.58 3074.95L8674.05 3574.28H9044.67L9297.41 3255.51H9307.9L9560.32 3574.28H9933.72L9514.35 3074.95L9920.76 2575.62H9556.31L9307.9 2891.19H9297.41L9051.46 2575.62Z" fill="#E92424"/>
<path d="M10771.4 2570.62H10404.5L10811.5 3069.95L10394 3569.28H10764.6L11017.4 3250.51H11027.9L11280.3 3569.28H11653.7L11234.3 3069.95L11640.7 2570.62H11276.3L11027.9 2886.19H11017.4L10771.4 2570.62Z" fill="#E92424"/>
<path d="M12383 2561.64H12016.1L12423.1 3060.97L12005.6 3560.3H12376.2L12628.9 3241.53H12639.4L12891.8 3560.3H13265.2L12845.9 3060.97L13252.3 2561.64H12887.8L12639.4 2877.21H12628.9L12383 2561.64Z" fill="#E92424"/>
</g>
<defs>
<linearGradient id="paint0_linear_637_19" x1="10054.6" y1="20021.9" x2="10025.6" y2="2.27647" gradientUnits="userSpaceOnUse">
<stop stop-color="#F3475C"/>
<stop offset="1" stop-color="#E587AE"/>
</linearGradient>
<clipPath id="clip0_637_19">
<rect width="20046.6" height="20059.6" fill="white"/>
</clipPath>
</defs>
</svg>
