<svg width="920" height="516" viewBox="0 0 920 516" fill="none" xmlns="http://www.w3.org/2000/svg">
<g clip-path="url(#clip0_622_19)">
<path d="M661.677 0C804.003 0 919.381 115.378 919.381 257.705C919.381 400.032 804.003 515.41 661.677 515.41C519.349 515.41 403.971 400.032 403.971 257.705C403.971 115.378 519.349 0 661.677 0Z" fill="url(#paint0_linear_622_19)"/>
<path d="M661.675 80.552C759.514 80.552 838.829 159.866 838.829 257.704C838.829 355.543 759.514 434.857 661.675 434.857C563.837 434.857 484.524 355.543 484.524 257.704C484.524 159.866 563.837 80.552 661.675 80.552Z" fill="white" fill-opacity="0.25098"/>
<path d="M533.055 310.153H608.861V336.188H645.109V310.153H663.88V280.27H645.109V179.257H597.352L533.055 280.557V310.153ZM609.615 280.27H570.778V279.011L608.392 219.425H609.615V280.27ZM743.856 338.346C780.427 338.346 804.772 315.331 804.772 283.003C804.772 253.12 783.951 231.831 755.722 231.831C740.87 231.831 728.536 238.196 723.322 246.863H722.423L726.02 209.823H795.494V179.257H694.841L688.01 263.872L721.489 270.129C725.696 263.081 734.434 258.729 743.639 258.801C758.023 258.801 768.309 268.978 768.237 284.081C768.309 299.113 758.203 309.218 743.856 309.218C731.665 309.218 721.632 301.63 721.093 290.051H684.342C684.772 318.244 709.55 338.346 743.856 338.346Z" fill="#FEFEFE"/>
<path d="M257.705 0.403076C400.032 0.403076 515.411 115.781 515.411 258.108C515.411 400.435 400.032 515.813 257.705 515.813C115.378 515.813 0 400.435 0 258.108C0 115.781 115.378 0.403076 257.705 0.403076Z" fill="url(#paint1_linear_622_19)"/>
<path d="M257.704 80.9551C355.543 80.9551 434.858 160.269 434.858 258.107C434.858 355.946 355.543 435.26 257.704 435.26C159.866 435.26 80.553 355.946 80.553 258.107C80.553 160.269 159.866 80.9551 257.704 80.9551Z" fill="white" fill-opacity="0.25098"/>
<path d="M260.135 386.234C317.34 386.348 356.83 350.402 356.716 298.169C356.83 252.05 325.285 218.447 280.594 218.447C252.706 218.447 227.619 231.934 217.274 254.336H215.674C215.959 209.875 230.818 181.415 261.335 181.415C277.909 181.415 291.052 189.701 294.596 205.531H353.915C349.286 163.642 313.74 130.039 261.335 130.039C197.786 130.039 156.525 180.043 156.297 262.394C156.125 353.317 205.33 386.12 260.135 386.234ZM259.793 339.944C237.733 339.944 221.388 322.628 221.275 300.226C221.56 277.71 237.962 260.451 259.906 260.451C282.195 260.451 298.368 277.481 298.253 300.112C298.368 322.914 282.08 339.944 259.793 339.944Z" fill="#FEFEFE"/>
</g>
<defs>
<linearGradient id="paint0_linear_622_19" x1="661.676" y1="0" x2="661.676" y2="515.41" gradientUnits="userSpaceOnUse">
<stop stop-color="#F3475C"/>
<stop offset="1" stop-color="#FF5C5C"/>
</linearGradient>
<linearGradient id="paint1_linear_622_19" x1="257.705" y1="0.403076" x2="257.705" y2="515.813" gradientUnits="userSpaceOnUse">
<stop stop-color="#F3475C"/>
<stop offset="1" stop-color="#FB2B3A"/>
</linearGradient>
<clipPath id="clip0_622_19">
<rect width="919.381" height="515.813" fill="white"/>
</clipPath>
</defs>
</svg>
