<svg width="39" height="41" viewBox="0 0 39 41" fill="none" xmlns="http://www.w3.org/2000/svg">
<path fill-rule="evenodd" clip-rule="evenodd" d="M0.00509796 34.5697C2.64076 33.4457 9.26092 31.6628 14.6563 33.5232C20.0516 35.3837 23.4935 38.9496 24.54 40.5C24.5788 38.7946 25.9353 34.9419 31.0516 33.1744C28.8036 31.4302 23.9586 26.6395 22.5633 21.4302C23.9974 20.655 28.3074 19.3837 34.0749 20.5L38.4935 14.8023L29.1912 10.9651L28.2609 8.8721L21.2842 6.43024V2.36047L16.633 0.5C10.9741 4.29842 -0.273972 16.4302 0.00509796 34.5697ZM6.51152 14.8024C7.55804 12.6706 11.0929 7.31398 16.8604 2.94188L18.9534 3.63956V7.70933L26.6278 10.6163L27.2092 12.3605L35.2325 15.8489L33.372 18.2907C30.5425 17.8644 23.8371 17.7093 19.6511 20.5C19.5348 19.5698 19.5115 17.1977 20.3487 15.1512L18.7208 14.221C17.5193 17.1279 16.1162 24.9884 20.1162 33.1745L15.6976 31.1977C14.9224 28.407 14.0697 20.8721 16.8604 13.0582L15.3487 12.2442L14.3022 15.1512C12.7131 14.7636 8.93013 14.1512 6.51152 14.8024Z" fill="url(#paint0_linear_952_980)"/>
<path d="M25.9721 11.0193L19.8357 8.68164L26.1993 11.9544L25.9721 11.0193Z" fill="url(#paint1_linear_952_980)"/>
<defs>
<linearGradient id="paint0_linear_952_980" x1="19.2467" y1="0.5" x2="19.2467" y2="40.5" gradientUnits="userSpaceOnUse">
<stop stop-color="#E3FF74"/>
<stop offset="1" stop-color="#FD5E04"/>
</linearGradient>
<linearGradient id="paint1_linear_952_980" x1="23.0175" y1="8.68164" x2="23.0175" y2="11.9544" gradientUnits="userSpaceOnUse">
<stop stop-color="#E3FF74"/>
<stop offset="1" stop-color="#FD5E04"/>
</linearGradient>
</defs>
</svg>
