<svg width="46" height="18" viewBox="0 0 46 18" fill="none" xmlns="http://www.w3.org/2000/svg">
<path fill-rule="evenodd" clip-rule="evenodd" d="M29.3184 2.43101H29.5477V7.08556H34.4629V17.099H40.6485V7.08556H45.7379V0.899902H29.3184V2.43101ZM39.1174 5.55446H44.2068V2.43101H30.8495V5.55446H35.994V15.5679H39.1174V5.55446Z" fill="url(#paint0_linear_952_991)"/>
<path fill-rule="evenodd" clip-rule="evenodd" d="M14.6592 0.899902H31.0787V2.43101H30.8494V5.55446H31.0787V17.099H14.6592V12.4444H14.8885V2.43101H14.6592V0.899902ZM26.4242 5.55446V12.4444H19.3137V5.55446H26.4242ZM20.8448 7.08556V10.9133H24.8931V7.08556H20.8448ZM16.1903 2.43101V15.5679H29.5476V2.43101H16.1903Z" fill="url(#paint1_linear_952_991)"/>
<path fill-rule="evenodd" clip-rule="evenodd" d="M0 0.899902H16.4195V2.43101H16.1902V13.9755H6.18566V17.099H0V0.899902ZM4.65455 12.4444H14.8884V2.43101H1.5311V15.5679H4.65455V12.4444ZM11.765 5.55446V9.32097H4.65455V5.55446H11.765ZM6.18566 7.08556V7.78987H10.2339V7.08556H6.18566Z" fill="url(#paint2_linear_952_991)"/>
<defs>
<linearGradient id="paint0_linear_952_991" x1="37.5281" y1="0.899902" x2="37.5281" y2="17.099" gradientUnits="userSpaceOnUse">
<stop stop-color="#E3FF74"/>
<stop offset="1" stop-color="#FD5E04"/>
</linearGradient>
<linearGradient id="paint1_linear_952_991" x1="22.869" y1="0.899902" x2="22.869" y2="17.099" gradientUnits="userSpaceOnUse">
<stop stop-color="#E3FF74"/>
<stop offset="1" stop-color="#FD5E04"/>
</linearGradient>
<linearGradient id="paint2_linear_952_991" x1="8.20977" y1="0.899902" x2="8.20977" y2="17.099" gradientUnits="userSpaceOnUse">
<stop stop-color="#E3FF74"/>
<stop offset="1" stop-color="#FD5E04"/>
</linearGradient>
</defs>
</svg>
