<svg width="46" height="18" viewBox="0 0 46 18" fill="none" xmlns="http://www.w3.org/2000/svg">
<path fill-rule="evenodd" clip-rule="evenodd" d="M29.3182 2.43113H29.5476V7.08568H34.4627V17.0991H40.6484V7.08568H45.7378V0.900024H29.3182V2.43113ZM39.1173 5.55458H44.2067V2.43113H30.8493V5.55458H35.9938V15.568H39.1173V5.55458Z" fill="white"/>
<path fill-rule="evenodd" clip-rule="evenodd" d="M14.6593 0.900024H31.0789V2.43113H30.8495V5.55458H31.0789V17.0991H14.6593V12.4445H14.8886V2.43113H14.6593V0.900024ZM26.4243 5.55458V12.4445H19.3139V5.55458H26.4243ZM20.845 7.08568V10.9134H24.8932V7.08568H20.845ZM16.1904 2.43113V15.568H29.5478V2.43113H16.1904Z" fill="white"/>
<path fill-rule="evenodd" clip-rule="evenodd" d="M0 0.900024H16.4195V2.43113H16.1902V13.9756H6.18566V17.0991H0V0.900024ZM4.65455 12.4445H14.8884V2.43113H1.5311V15.568H4.65455V12.4445ZM11.765 5.55458V9.32109H4.65455V5.55458H11.765ZM6.18566 7.08568V7.78999H10.2339V7.08568H6.18566Z" fill="white"/>
</svg>
