<svg width="88" height="17" viewBox="0 0 88 17" fill="none" xmlns="http://www.w3.org/2000/svg">
<path d="M71.4161 0.5H75.2203V16.5H71.4161V0.5ZM83.8805 6.16154V0.5H87.6847V6.16154L85.4469 8.06364L87.6847 9.96573V16.5H83.8805V9.96573H76.6301V6.16154H83.8805Z" fill="white"/>
<path d="M53.5621 0.5H69.8307V8.89161L67.5929 10.7937L69.8307 12.6958V16.5H66.0265V12.6958H57.3663V16.5H53.5621V0.5ZM66.0265 8.89161V4.3042H57.3663V8.89161H66.0265Z" fill="white"/>
<path d="M51.9989 16.5H35.708V6.54196H48.1947V4.3042H35.708V0.5H51.9989V16.5ZM39.5122 12.6958H48.1947V10.3462H39.5122V12.6958Z" fill="white"/>
<path d="M24.1199 4.3042H17.8541V0.5H34.1227V4.3042H27.9241V16.5H24.1199V4.3042Z" fill="white"/>
<path d="M0 0.5H16.1119V4.3042H3.8042V6.58671H16.2685V16.5H0V12.6958H12.4643V10.3909H0V0.5Z" fill="white"/>
</svg>
