<svg width="88" height="17" viewBox="0 0 88 17" fill="none" xmlns="http://www.w3.org/2000/svg">
<path d="M71.416 0.5H75.2202V16.5H71.416V0.5ZM83.8804 6.16154V0.5H87.6846V6.16154L85.4468 8.06364L87.6846 9.96573V16.5H83.8804V9.96573H76.63V6.16154H83.8804Z" fill="url(#paint0_linear_952_985)"/>
<path d="M53.562 0.5H69.8305V8.89161L67.5928 10.7937L69.8305 12.6958V16.5H66.0263V12.6958H57.3662V16.5H53.562V0.5ZM66.0263 8.89161V4.3042H57.3662V8.89161H66.0263Z" fill="url(#paint1_linear_952_985)"/>
<path d="M51.9989 16.5H35.708V6.54196H48.1947V4.3042H35.708V0.5H51.9989V16.5ZM39.5122 12.6958H48.1947V10.3462H39.5122V12.6958Z" fill="url(#paint2_linear_952_985)"/>
<path d="M24.1197 4.3042H17.854V0.5H34.1225V4.3042H27.9239V16.5H24.1197V4.3042Z" fill="url(#paint3_linear_952_985)"/>
<path d="M0 0.5H16.1119V4.3042H3.8042V6.58671H16.2685V16.5H0V12.6958H12.4643V10.3909H0V0.5Z" fill="url(#paint4_linear_952_985)"/>
<defs>
<linearGradient id="paint0_linear_952_985" x1="79.5503" y1="0.5" x2="79.5503" y2="16.5" gradientUnits="userSpaceOnUse">
<stop stop-color="#E3FF74"/>
<stop offset="1" stop-color="#FD5E04"/>
</linearGradient>
<linearGradient id="paint1_linear_952_985" x1="61.6963" y1="0.5" x2="61.6963" y2="16.5" gradientUnits="userSpaceOnUse">
<stop stop-color="#E3FF74"/>
<stop offset="1" stop-color="#FD5E04"/>
</linearGradient>
<linearGradient id="paint2_linear_952_985" x1="43.8535" y1="0.5" x2="43.8535" y2="16.5" gradientUnits="userSpaceOnUse">
<stop stop-color="#E3FF74"/>
<stop offset="1" stop-color="#FD5E04"/>
</linearGradient>
<linearGradient id="paint3_linear_952_985" x1="25.9883" y1="0.5" x2="25.9883" y2="16.5" gradientUnits="userSpaceOnUse">
<stop stop-color="#E3FF74"/>
<stop offset="1" stop-color="#FD5E04"/>
</linearGradient>
<linearGradient id="paint4_linear_952_985" x1="8.13427" y1="0.5" x2="8.13427" y2="16.5" gradientUnits="userSpaceOnUse">
<stop stop-color="#E3FF74"/>
<stop offset="1" stop-color="#FD5E04"/>
</linearGradient>
</defs>
</svg>
