<svg width="24" height="24" viewBox="0 0 24 24" fill="none" xmlns="http://www.w3.org/2000/svg">
<g clip-path="url(#clip0_138_21)">
<path d="M17.5 13C13.916 13 11 10.084 11 6.5C11 2.916 13.916 0 17.5 0C21.084 0 24 2.916 24 6.5C24 10.084 21.084 13 17.5 13ZM17.5 1C14.467 1 12 3.467 12 6.5C12 9.533 14.467 12 17.5 12C20.533 12 23 9.533 23 6.5C23 3.467 20.533 1 17.5 1Z" fill="currentColor"/>
<path d="M17.5 10C17.224 10 17 9.776 17 9.5V3.5C17 3.224 17.224 3 17.5 3C17.776 3 18 3.224 18 3.5V9.5C18 9.776 17.776 10 17.5 10Z" fill="currentColor"/>
<path d="M20.5 7H14.5C14.224 7 14 6.776 14 6.5C14 6.224 14.224 6 14.5 6H20.5C20.776 6 21 6.224 21 6.5C21 6.776 20.776 7 20.5 7Z" fill="currentColor"/>
<path d="M19.5 17H6.49999C6.26199 17 6.05699 16.832 6.00999 16.598L4.00999 6.598C3.97999 6.451 4.01899 6.299 4.11299 6.183C4.20799 6.067 4.34999 6 4.49999 6H8.49999C8.77599 6 8.99999 6.224 8.99999 6.5C8.99999 6.776 8.77599 7 8.49999 7H5.10999L6.90999 16H19.09L19.367 14.615C19.421 14.344 19.684 14.167 19.955 14.223C20.226 14.277 20.401 14.54 20.347 14.811L19.99 16.598C19.943 16.832 19.738 17 19.5 17Z" fill="currentColor"/>
<path d="M6.5 17C6.267 17 6.058 16.836 6.01 16.598L3.531 4.204C3.391 3.505 2.772 2.998 2.06 2.998L0.5 3C0.224 3 0 2.776 0 2.5C0 2.224 0.223 2 0.5 2L2.058 1.998H2.06C3.248 1.998 4.279 2.843 4.512 4.008L6.99 16.402C7.044 16.673 6.868 16.936 6.598 16.99C6.565 16.997 6.532 17 6.5 17Z" fill="currentColor"/>
<path d="M21.5 19H4.5C3.673 19 3 18.327 3 17.5C3 16.673 3.673 16 4.5 16H6.5C6.776 16 7 16.224 7 16.5C7 16.776 6.776 17 6.5 17H4.5C4.224 17 4 17.224 4 17.5C4 17.776 4.224 18 4.5 18H21.5C21.776 18 22 18.224 22 18.5C22 18.776 21.776 19 21.5 19Z" fill="currentColor"/>
<path d="M8 24C6.897 24 6 23.103 6 22C6 20.897 6.897 20 8 20C9.103 20 10 20.897 10 22C10 23.103 9.103 24 8 24ZM8 21C7.449 21 7 21.449 7 22C7 22.551 7.449 23 8 23C8.551 23 9 22.551 9 22C9 21.449 8.551 21 8 21Z" fill="currentColor"/>
<path d="M17 24C15.897 24 15 23.103 15 22C15 20.897 15.897 20 17 20C18.103 20 19 20.897 19 22C19 23.103 18.103 24 17 24ZM17 21C16.449 21 16 21.449 16 22C16 22.551 16.449 23 17 23C17.551 23 18 22.551 18 22C18 21.449 17.551 21 17 21Z" fill="currentColor"/>
</g>
<defs>
<clipPath id="clip0_138_21">
<rect width="24" height="24" fill="white"/>
</clipPath>
</defs>
</svg>
