<svg width="32" height="33" viewBox="0 0 32 33" fill="none" xmlns="http://www.w3.org/2000/svg">
<path d="M12.7332 16.4904L22.5332 26.2904C22.8665 26.6237 23.0279 27.0126 23.0172 27.4571C23.0065 27.9015 22.8341 28.2904 22.4999 28.6237C22.1665 28.9571 21.7776 29.1237 21.3332 29.1237C20.8887 29.1237 20.4999 28.9571 20.1665 28.6237L9.89985 18.3904C9.63319 18.1237 9.43319 17.8237 9.29985 17.4904C9.16652 17.1571 9.09985 16.8237 9.09985 16.4904C9.09985 16.1571 9.16652 15.8237 9.29985 15.4904C9.43319 15.1571 9.63319 14.8571 9.89985 14.5904L20.1665 4.32373C20.4999 3.9904 20.8945 3.82906 21.3505 3.83973C21.8065 3.8504 22.2007 4.02284 22.5332 4.35706C22.8665 4.6904 23.0332 5.07929 23.0332 5.52373C23.0332 5.96817 22.8665 6.35706 22.5332 6.6904L12.7332 16.4904Z" fill="#E4E8FF"/>
</svg>
