<svg width="24" height="24" viewBox="0 0 24 24" fill="none" xmlns="http://www.w3.org/2000/svg">
<path d="M5.57257 9.5016C6.08728 9.5016 6.50453 9.08435 6.50453 8.56964C6.50453 8.05495 6.08728 7.6377 5.57257 7.6377C5.05788 7.6377 4.64062 8.05495 4.64062 8.56964C4.64062 9.08435 5.05788 9.5016 5.57257 9.5016Z" fill="black"/>
<path d="M3.03546 12.3664C3.55017 12.3664 3.96742 11.9491 3.96742 11.4344C3.96742 10.9197 3.55017 10.5024 3.03546 10.5024C2.52077 10.5024 2.10352 10.9197 2.10352 11.4344C2.10352 11.9491 2.52077 12.3664 3.03546 12.3664Z" fill="black"/>
<path fill-rule="evenodd" clip-rule="evenodd" d="M19.1546 2.45679C18.0997 1.9104 16.8016 2.32261 16.2552 3.37747L13.8688 7.98472C13.856 8.00942 13.845 8.03458 13.8357 8.06002C12.6668 8.01993 11.5088 8.5363 10.7279 9.45028C9.80776 10.5271 8.67576 11.7023 7.70843 12.3023C6.32932 13.1579 5.1892 13.4662 4.48118 13.5756C4.06709 13.6396 3.73099 13.9062 3.56727 14.252C3.39625 14.6131 3.40914 15.0863 3.74148 15.4525C4.46396 16.2486 5.87253 17.5527 8.45612 19.1959C10.2456 20.334 11.8499 20.9634 12.7134 21.255C13.3751 21.4786 14.0823 21.223 14.462 20.6543C14.942 19.9353 15.7851 18.5795 16.509 16.9297C17.0445 15.7092 17.5058 14.4513 17.9473 13.1955C18.3198 12.1362 18.1523 11.0187 17.586 10.1355L20.073 5.36041C20.6226 4.3051 20.2111 3.00403 19.1546 2.45679ZM16.6481 9.15108L18.9319 4.76608C19.1528 4.342 18.9874 3.81914 18.5628 3.59923C18.1389 3.37967 17.6172 3.54532 17.3977 3.96923L15.1307 8.34596C15.2066 8.37818 15.2819 8.41316 15.3565 8.45102L16.1849 8.87102C16.3481 8.95373 16.5027 9.04753 16.6481 9.15108ZM16.7336 12.7688C16.6419 13.0295 16.5453 13.3006 16.4451 13.5768L11.2241 10.8369C11.3922 10.6495 11.5534 10.4647 11.706 10.2861C12.4831 9.37663 13.7586 9.08336 14.7747 9.59854L15.6031 10.0186C16.6237 10.536 17.1063 11.7086 16.7336 12.7688ZM8.38667 13.3956C9.02151 13.0018 9.68396 12.4263 10.3056 11.8078L10.3139 11.8123L15.9918 14.7919C15.7734 15.3598 15.549 15.9155 15.3308 16.4128C14.6473 17.9706 13.8471 19.2582 13.392 19.9398C13.3271 20.037 13.2218 20.0688 13.1251 20.0361C12.7453 19.9079 12.2028 19.7061 11.5561 19.4134C11.8563 19.0969 12.2917 18.5796 12.7089 17.8687C12.8892 17.5615 12.785 17.1716 12.4762 16.9977C12.1673 16.8239 11.7708 16.932 11.5905 17.2392C11.2552 17.8105 10.8455 18.3733 10.3433 18.8123C9.9602 18.6056 9.55866 18.3723 9.14658 18.1103C8.81152 17.8971 8.49774 17.6905 8.20402 17.4907C8.35685 17.3879 8.52443 17.2619 8.70433 17.1076C8.97492 16.8756 9.00179 16.4745 8.76436 16.2117C8.52693 15.949 8.11515 15.9241 7.84459 16.1561C7.44636 16.4976 7.16826 16.6276 7.05615 16.6714C6.03177 15.9017 5.34545 15.2698 4.90128 14.809C5.76181 14.649 6.9774 14.2699 8.38667 13.3956Z" fill="black"/>
</svg>
