<svg width="25" height="24" viewBox="0 0 25 24" fill="none" xmlns="http://www.w3.org/2000/svg">
<g clip-path="url(#clip0_268_457)">
<path fill-rule="evenodd" clip-rule="evenodd" d="M17.7782 2.60329C17.8746 2.36742 18.0574 2.17726 18.2893 2.07164C18.5212 1.96602 18.7847 1.95291 19.0259 2.03498C19.2671 2.11705 19.4679 2.28811 19.5873 2.51323C19.7067 2.73836 19.7356 3.00056 19.6682 3.24629L19.6302 3.35629L17.0202 9.77629L17.6772 9.95129C18.7272 10.2323 19.6012 11.0853 19.7672 12.2493C19.9092 13.2493 20.0422 14.7693 19.8592 16.3353C19.6772 17.8873 19.1692 19.6133 17.9122 20.8813C17.4502 21.3473 16.7872 21.4213 16.3392 21.4293C15.8282 21.4373 15.2392 21.3593 14.6342 21.2393C13.4182 20.9973 11.9592 20.5493 10.5802 20.0733L10.1662 19.9283L9.35317 19.6343L8.57317 19.3433L7.83917 19.0603L6.86117 18.6723C6.30893 18.4513 5.75955 18.2233 5.21317 17.9883C5.05424 17.9194 4.91593 17.8104 4.81179 17.672C4.70764 17.5336 4.64122 17.3706 4.61904 17.1988C4.59686 17.027 4.61968 16.8524 4.68527 16.6921C4.75085 16.5318 4.85695 16.3913 4.99317 16.2843C6.37117 15.2043 7.66317 13.9623 8.75517 12.8153L9.28317 12.2513C9.36917 12.1593 9.45317 12.0673 9.53417 11.9773L10.0062 11.4503L10.2262 11.1983L10.8202 10.5033L11.1572 10.0973C11.5098 9.66403 11.973 9.33423 12.4978 9.14287C13.0226 8.9515 13.5894 8.90569 14.1382 9.01029L14.3372 9.05629L15.0742 9.25329L17.7782 2.60329ZM13.8192 10.9883C13.6165 10.9377 13.4035 10.9465 13.2057 11.0135C13.0078 11.0805 12.8334 11.203 12.7032 11.3663L12.4602 11.6593L17.8582 13.1053L17.8112 12.7133C17.8032 12.6526 17.7948 12.5919 17.7862 12.5313C17.7502 12.2783 17.5712 12.0403 17.2762 11.9213L17.1602 11.8833L13.8192 10.9883ZM6.06517 7.70629L6.12917 7.84629C6.40186 8.41038 6.83133 8.88394 7.36617 9.21029L7.46617 9.26829C7.47656 9.27424 7.48519 9.28283 7.49119 9.29319C7.4972 9.30355 7.50036 9.31531 7.50036 9.32729C7.50036 9.33926 7.4972 9.35102 7.49119 9.36138C7.48519 9.37174 7.47656 9.38033 7.46617 9.38629L7.36617 9.44429C6.83141 9.77132 6.40227 10.2456 6.13017 10.8103L6.06617 10.9493C6.06062 10.9619 6.05152 10.9726 6.03998 10.9802C6.02844 10.9877 6.01495 10.9917 6.00117 10.9917C5.98738 10.9917 5.9739 10.9877 5.96236 10.9802C5.95081 10.9726 5.94171 10.9619 5.93617 10.9493L5.87217 10.8093C5.59948 10.2452 5.17001 9.77164 4.63517 9.44529L4.53517 9.38729C4.52478 9.38133 4.51615 9.37274 4.51014 9.36238C4.50414 9.35202 4.50098 9.34026 4.50098 9.32829C4.50098 9.31631 4.50414 9.30455 4.51014 9.29419C4.51615 9.28383 4.52478 9.27524 4.53517 9.26929L4.63517 9.21129C5.16956 8.8841 5.59833 8.40985 5.87017 7.84529L5.93417 7.70629C5.93971 7.69367 5.94881 7.68294 5.96036 7.6754C5.9719 7.66787 5.98538 7.66385 5.99917 7.66385C6.01295 7.66385 6.02644 7.66787 6.03798 7.6754C6.04952 7.68294 6.05962 7.69367 6.06517 7.70629ZM8.89717 2.84729C8.93717 2.75729 9.06317 2.75729 9.10317 2.84729L9.20517 3.06929C9.63951 3.96726 10.3235 4.72101 11.1752 5.24029L11.3322 5.33329C11.349 5.34263 11.3631 5.35632 11.3729 5.37294C11.3827 5.38955 11.3879 5.40849 11.3879 5.42779C11.3879 5.44708 11.3827 5.46602 11.3729 5.48264C11.3631 5.49926 11.349 5.51295 11.3322 5.52229L11.1742 5.61429C10.3223 6.13383 9.63836 6.88794 9.20417 7.78629L9.10417 8.00829C9.09536 8.0284 9.08087 8.04551 9.06249 8.05752C9.04411 8.06954 9.02263 8.07594 9.00067 8.07594C8.97871 8.07594 8.95723 8.06954 8.93885 8.05752C8.92046 8.04551 8.90598 8.0284 8.89717 8.00829L8.79517 7.78629C8.36098 6.88794 7.677 6.13383 6.82517 5.61429L6.66717 5.52229C6.65029 5.51295 6.63622 5.49926 6.62642 5.48264C6.61662 5.46602 6.61145 5.44708 6.61145 5.42779C6.61145 5.40849 6.61662 5.38955 6.62642 5.37294C6.63622 5.35632 6.65029 5.34263 6.66717 5.33329L6.82617 5.24029C7.67786 4.72101 8.36182 3.96726 8.79617 3.06929L8.89617 2.84729H8.89717Z" fill="currentColor"/>
</g>
<defs>
<clipPath id="clip0_268_457">
<rect width="24" height="24" fill="currentColor" transform="translate(0.5 -0.00976562)"/>
</clipPath>
</defs>
</svg>
