<svg width="7" height="60" viewBox="0 0 7 60" fill="none" xmlns="http://www.w3.org/2000/svg">
<path d="M3.50049 0.333333C2.02773 0.333333 0.833822 1.52724 0.833822 3C0.833821 4.47276 2.02773 5.66667 3.50049 5.66667C4.97325 5.66667 6.16715 4.47276 6.16716 3C6.16716 1.52724 4.97325 0.333333 3.50049 0.333333ZM3.50049 54.3333C2.02773 54.3333 0.833819 55.5272 0.833819 57C0.833819 58.4728 2.02773 59.6667 3.50049 59.6667C4.97325 59.6667 6.16715 58.4728 6.16715 57C6.16715 55.5272 4.97325 54.3333 3.50049 54.3333ZM3.00049 3L3.00049 57L4.00049 57L4.00049 3L3.00049 3Z" fill="#E4E8FF"/>
</svg>
