<svg id="Layer_1" height="512" viewBox="0 0 512 512" width="512" xmlns="http://www.w3.org/2000/svg" data-name="Layer 1"><path d="m35.021 218.979h441.958a37.021 37.021 0 0 1 0 74.042h-441.958a37.021 37.021 0 0 1 0-74.042zm441.958 32h-441.958a5.022 5.022 0 0 0 0 10.044h441.958a5.022 5.022 0 0 0 0-10.044zm-441.958-175.022h441.958a37.022 37.022 0 0 1 0 74.043h-441.958a37.022 37.022 0 0 1 0-74.043zm441.958 32h-441.958a5.022 5.022 0 0 0 0 10.043h441.958a5.022 5.022 0 0 0 0-10.043zm-441.958 254.043h441.958a37.022 37.022 0 0 1 0 74.043h-441.958a37.022 37.022 0 0 1 0-74.043zm441.958 32h-441.958a5.022 5.022 0 0 0 0 10.043h441.958a5.022 5.022 0 0 0 0-10.043zm-441.958-276h441.958a5.022 5.022 0 0 0 0-10.043h-441.958a5.022 5.022 0 0 0 0 10.043zm441.958 132.978h-441.958a5.022 5.022 0 0 0 0 10.044h441.958a5.022 5.022 0 0 0 0-10.044zm0 143.022h-441.958a5.022 5.022 0 0 0 0 10.043h441.958a5.022 5.022 0 0 0 0-10.043z" fill-rule="evenodd" fill='currentColor'/></svg>