<svg width="25" height="24" viewBox="0 0 25 24" fill="none" xmlns="http://www.w3.org/2000/svg">
<path d="M12.489 2.08862C12.1995 2.08862 11.9099 2.1535 11.6857 2.28325L4.52536 6.42512C4.07677 6.68462 4.07677 7.09497 4.52536 7.35447L11.6857 11.4963C12.1343 11.7558 12.8436 11.7558 13.2922 11.4963L20.4525 7.35447C20.9011 7.09501 20.9011 6.68462 20.4525 6.42517L13.2922 2.28329C13.0679 2.15345 12.7784 2.08862 12.489 2.08862ZM12.4503 4.57815C12.8728 4.5827 13.2527 4.6795 13.5899 4.8684C13.8205 4.99769 13.9716 5.14511 14.043 5.31081C14.112 5.4752 14.1161 5.6919 14.0551 5.96073L13.9801 6.2282C13.9305 6.41959 13.9201 6.55726 13.9492 6.64117C13.9759 6.72386 14.0422 6.79483 14.1481 6.85417L14.307 6.94314L12.7491 7.81595L12.576 7.71906C12.3829 7.61097 12.2598 7.48881 12.2064 7.3525C12.1508 7.21492 12.16 6.99611 12.2343 6.69601L12.3057 6.42658C12.3473 6.26612 12.3513 6.13455 12.3179 6.03198C12.2873 5.92773 12.2179 5.84528 12.1096 5.78462C11.9448 5.69228 11.7474 5.65919 11.5176 5.68511C11.2853 5.70976 11.0454 5.79142 10.798 5.93003C10.565 6.06058 10.3533 6.22403 10.1629 6.42034C9.97013 6.61544 9.80475 6.83865 9.66661 7.09009L8.55802 6.4689C8.8073 6.21859 9.05222 5.99969 9.29283 5.81205C9.53349 5.62455 9.78755 5.4558 10.0551 5.3058C10.7571 4.91251 11.4099 4.67861 12.0136 4.60422C12.1584 4.5856 12.3044 4.57687 12.4504 4.57811L12.4503 4.57815ZM14.8296 7.23597L16.0865 7.94022L14.5286 8.81303L13.2716 8.10883L14.8296 7.23597ZM4.04724 8.13906C3.77757 8.13179 3.59424 8.34231 3.59424 8.71469V16.1067C3.59424 16.6247 3.94908 17.2393 4.39768 17.4984L11.285 21.4757C11.7336 21.7347 12.0885 21.5298 12.0885 21.0118V13.6197C12.0885 13.1016 11.7336 12.4872 11.285 12.2281L4.39768 8.25086C4.27158 8.17797 4.15275 8.14178 4.04724 8.13897V8.13906ZM20.9585 8.13915C20.853 8.14197 20.7343 8.17806 20.6081 8.25095L13.7206 12.2282C13.272 12.4872 12.9171 13.1018 12.9171 13.6199V21.0121C12.9171 21.53 13.272 21.7348 13.7206 21.4757L20.6082 17.4986C21.0568 17.2395 21.4115 16.625 21.4115 16.107V8.71478C21.4115 8.3425 21.2282 8.13203 20.9585 8.13925V8.13915ZM5.88605 11.1275C6.19322 11.1916 6.47377 11.2699 6.72765 11.3625C6.98214 11.4554 7.22807 11.5703 7.46264 11.7059C8.082 12.0635 8.55418 12.4711 8.87911 12.9285C9.20405 13.3832 9.36652 13.8681 9.36652 14.3835C9.36652 14.6478 9.31707 14.8566 9.21802 15.0099C9.11902 15.1605 8.95018 15.2869 8.71158 15.3893L8.46783 15.4793C8.29524 15.5469 8.18222 15.6166 8.12893 15.6884C8.07563 15.7574 8.049 15.8525 8.049 15.9739V16.156L6.6744 15.3623V15.164C6.6744 14.9428 6.71621 14.7714 6.80002 14.6498C6.88379 14.5255 7.06027 14.4089 7.32933 14.2998L7.57308 14.2058C7.71779 14.149 7.82311 14.0777 7.88911 13.9917C7.95755 13.9072 7.99186 13.8029 7.99186 13.6787C7.99186 13.49 7.93093 13.3077 7.80905 13.1322C7.68718 12.9539 7.51716 12.8017 7.29882 12.6756C7.09318 12.5569 6.87104 12.4745 6.6324 12.4285C6.3938 12.3797 6.14499 12.3697 5.88605 12.3983V11.1275ZM18.5207 11.531C18.5921 11.531 18.6582 11.5387 18.7191 11.5541C19.0441 11.6336 19.2065 11.931 19.2065 12.4463C19.2065 12.7107 19.157 12.9767 19.058 13.2443C18.959 13.5091 18.7902 13.8305 18.5516 14.2084L18.3078 14.5798C18.1352 14.8468 18.0222 15.0468 17.9689 15.1802C17.9156 15.3107 17.889 15.4367 17.889 15.5581V15.7402L16.5144 16.5339V16.3356C16.5144 16.1144 16.5563 15.8945 16.64 15.6762C16.7239 15.4552 16.9003 15.1348 17.1693 14.7151L17.4131 14.3396C17.5578 14.1158 17.6631 13.9227 17.7291 13.7605C17.7976 13.5969 17.8319 13.453 17.8319 13.3288C17.8319 13.14 17.7709 13.0282 17.6491 12.9933C17.5273 12.9558 17.3571 13 17.1388 13.126C16.9332 13.2447 16.7111 13.4189 16.4725 13.6484C16.2339 13.8752 15.9851 14.1524 15.7261 14.4799V13.2092C16.0333 12.9185 16.3138 12.6729 16.5676 12.4724C16.8215 12.2718 17.0665 12.1035 17.3026 11.9672C17.8059 11.6766 18.2119 11.5312 18.5208 11.5309L18.5207 11.531ZM6.67435 15.9614L8.049 16.755V18.1957L6.6744 17.4021V15.9614L6.67435 15.9614ZM17.889 16.3392V17.7799L16.5144 18.5735V17.1329L17.889 16.3392Z" fill="currentColor"/>
</svg>
