<svg width="24" height="24" viewBox="0 0 24 24" fill="none" xmlns="http://www.w3.org/2000/svg">
<path d="M6.20239 5.82837C5.97732 5.75423 5.73884 5.72978 5.5034 5.75671C5.26797 5.78364 5.04117 5.8613 4.83865 5.98435C4.63613 6.1074 4.46271 6.27291 4.33033 6.46946C4.19795 6.66601 4.10978 6.88893 4.07188 7.12285C4.03398 7.35677 4.04726 7.59612 4.1108 7.82442C4.17435 8.05271 4.28664 8.26451 4.43995 8.4452C4.59326 8.6259 4.78393 8.77121 4.99882 8.8711C5.21371 8.97098 5.44771 9.02308 5.68468 9.0238C5.93797 9.02291 6.18773 8.96428 6.41496 8.85237C6.70463 8.70693 6.94478 8.47903 7.10517 8.19736C7.26556 7.9157 7.33902 7.59287 7.31629 7.26954C7.29356 6.94621 7.17566 6.63684 6.97744 6.38038C6.77923 6.12393 6.50955 5.93186 6.20239 5.82837ZM6.58639 7.68666C6.54652 7.80438 6.48352 7.91295 6.40109 8.00598C6.31866 8.09901 6.21846 8.17462 6.10639 8.22837C5.99383 8.2842 5.87137 8.31732 5.74601 8.32582C5.62066 8.33433 5.49485 8.31806 5.37578 8.27794C5.25671 8.23783 5.1467 8.17465 5.05205 8.09202C4.95739 8.0094 4.87994 7.90893 4.8241 7.79637C4.76827 7.68381 4.73516 7.56135 4.72666 7.436C4.71815 7.31064 4.73442 7.18483 4.77453 7.06576C4.81465 6.94669 4.87782 6.83668 4.96045 6.74203C5.04308 6.64737 5.14354 6.56992 5.2561 6.51409C5.42485 6.42963 5.61486 6.39715 5.80207 6.42078C5.98929 6.44441 6.16528 6.52308 6.30774 6.64682C6.4502 6.77056 6.55273 6.9338 6.60234 7.11586C6.65195 7.29792 6.64639 7.49061 6.58639 7.66952V7.68666Z" fill="black"/>
<path d="M11.7124 6.00324C11.9652 6.00365 12.2144 5.9437 12.4393 5.82838C12.7966 5.64812 13.0753 5.34282 13.2223 4.97053C13.3692 4.59824 13.3743 4.18492 13.2364 3.80916C13.0986 3.4334 12.8274 3.1214 12.4746 2.93248C12.1217 2.74357 11.7117 2.69091 11.3226 2.78453C10.9334 2.87814 10.5922 3.1115 10.3639 3.44024C10.1356 3.76897 10.036 4.17015 10.0841 4.5675C10.1322 4.96484 10.3247 5.33065 10.6249 5.59536C10.9251 5.86008 11.3122 6.00524 11.7124 6.00324ZM10.8038 4.05924C10.8436 3.94061 10.9065 3.83104 10.9889 3.73688C11.0713 3.64272 11.1715 3.56583 11.2838 3.51067C11.4144 3.44369 11.5588 3.40845 11.7056 3.40781C11.8759 3.40671 12.0435 3.45129 12.1908 3.53692C12.338 3.62255 12.4597 3.74609 12.543 3.89469C12.6264 4.04329 12.6684 4.21151 12.6646 4.38184C12.6609 4.55217 12.6116 4.71838 12.5218 4.86318C12.432 5.00798 12.3051 5.12607 12.1542 5.20516C12.0033 5.28425 11.8339 5.32144 11.6638 5.31287C11.4936 5.3043 11.3289 5.25028 11.1867 5.15643C11.0445 5.06258 10.93 4.93233 10.8553 4.77924C10.744 4.55536 10.7255 4.29666 10.8038 4.05924Z" fill="black"/>
<path d="M21.4221 10.399L18.2883 9.37043L14.1501 1.04928C13.9598 0.674821 13.6294 0.390581 13.2307 0.258331C12.832 0.126082 12.3973 0.156508 12.0209 0.342999L2.28377 5.19443C1.90811 5.38351 1.62237 5.71337 1.4888 6.11216C1.35522 6.51095 1.38464 6.94637 1.57063 7.32357L6.29863 16.8001L5.82892 18.2333C5.6868 18.6643 5.7214 19.1341 5.92514 19.5397C6.12888 19.9452 6.48513 20.2534 6.91577 20.3967L17.0026 23.7396C17.2156 23.8125 17.4409 23.8428 17.6657 23.8287C17.8904 23.8146 18.1101 23.7563 18.3123 23.6573C18.5135 23.556 18.6928 23.416 18.8399 23.2454C18.9869 23.0748 19.0989 22.8769 19.1695 22.663L22.5089 12.5796C22.6521 12.1481 22.618 11.6774 22.4142 11.2711C22.2104 10.8647 21.8535 10.556 21.4221 10.4127V10.399ZM2.18435 7.01843C2.07918 6.80401 2.06267 6.5568 2.13839 6.3303C2.2141 6.1038 2.37595 5.91622 2.58892 5.80814L12.3432 0.956713C12.5569 0.856703 12.8012 0.844101 13.0241 0.921593C13.247 0.999086 13.4308 1.16054 13.5363 1.37157L17.3695 9.05843L11.3352 7.05957C10.9037 6.91639 10.4331 6.95046 10.0267 7.15428C9.62035 7.3581 9.3116 7.71498 9.16835 8.14643L6.6072 15.8847L2.18435 7.01843ZM21.8575 12.343L18.5146 22.4333C18.4723 22.5616 18.4052 22.6804 18.317 22.7828C18.2288 22.8851 18.1213 22.9691 18.0006 23.03C17.8799 23.0908 17.7485 23.1272 17.6137 23.1372C17.4789 23.1472 17.3435 23.1305 17.2152 23.0881L7.13177 19.7487C7.00313 19.706 6.88419 19.6383 6.78181 19.5494C6.67943 19.4606 6.59562 19.3523 6.5352 19.231C6.41355 18.9869 6.39382 18.7045 6.48035 18.4459L6.99463 16.8961L9.81635 8.37271C9.85867 8.24436 9.92588 8.12561 10.0141 8.02325C10.1024 7.92089 10.2099 7.83692 10.3306 7.77614C10.4732 7.70443 10.6305 7.66686 10.7901 7.66643C10.9006 7.66647 11.0106 7.68382 11.1158 7.71786L17.9318 9.97728L21.2026 11.0607C21.331 11.102 21.4498 11.1689 21.5517 11.2573C21.6536 11.3457 21.7367 11.4537 21.7958 11.575C21.9151 11.8133 21.9372 12.0887 21.8575 12.343Z" fill="black"/>
<path d="M13.6486 11.4688C13.7538 11.161 13.765 10.829 13.681 10.5148C13.5969 10.2007 13.4212 9.91869 13.1763 9.70468C12.9315 9.49068 12.6285 9.35436 12.3059 9.31307C11.9834 9.27178 11.6558 9.32739 11.3649 9.47282C11.0741 9.61826 10.833 9.84694 10.6725 10.1298C10.512 10.4126 10.4393 10.7368 10.4636 11.0611C10.4879 11.3854 10.6081 11.6951 10.8089 11.9509C11.0098 12.2066 11.2822 12.3968 11.5915 12.4973C11.7572 12.553 11.9309 12.5808 12.1057 12.5796C12.4465 12.5778 12.7782 12.4699 13.0547 12.2708C13.3312 12.0717 13.5388 11.7913 13.6486 11.4688ZM12.9972 11.2562C12.9416 11.4227 12.8411 11.5707 12.7068 11.6837C12.5725 11.7968 12.4095 11.8705 12.236 11.8968C12.0624 11.9232 11.8849 11.901 11.7231 11.8329C11.5613 11.7647 11.4215 11.6532 11.319 11.5107C11.2166 11.3681 11.1555 11.2 11.1425 11.0249C11.1295 10.8498 11.1652 10.6746 11.2455 10.5185C11.3258 10.3623 11.4477 10.2314 11.5976 10.1402C11.7476 10.0489 11.9199 10.0009 12.0955 10.0013C12.1969 10.0005 12.2977 10.0167 12.3937 10.0493C12.5127 10.0888 12.6227 10.1514 12.7174 10.2335C12.8121 10.3156 12.8897 10.4155 12.9458 10.5276C13.0018 10.6397 13.0352 10.7618 13.044 10.8868C13.0528 11.0118 13.0369 11.1373 12.9972 11.2562Z" fill="black"/>
<path d="M16.7591 18.2844C16.3463 18.148 15.8962 18.1812 15.5078 18.3767C15.1194 18.5721 14.8246 18.9139 14.6882 19.3267C14.5518 19.7395 14.585 20.1896 14.7805 20.578C14.9759 20.9664 15.3177 21.2612 15.7305 21.3976C15.896 21.4543 16.0698 21.4832 16.2448 21.4833C16.6339 21.4819 17.0098 21.3424 17.3056 21.0897C17.6015 20.837 17.7979 20.4875 17.8601 20.1034C17.9223 19.7193 17.8461 19.3256 17.645 18.9925C17.444 18.6594 17.1313 18.4085 16.7625 18.2844H16.7591ZM17.1431 20.1427C17.0881 20.3104 16.9877 20.4595 16.8532 20.5737C16.7187 20.6879 16.5552 20.7626 16.3808 20.7897C16.2065 20.8167 16.028 20.795 15.8652 20.727C15.7024 20.6589 15.5616 20.5471 15.4584 20.404C15.3552 20.2609 15.2936 20.092 15.2803 19.9161C15.2671 19.7401 15.3028 19.5639 15.3835 19.407C15.4642 19.2501 15.5867 19.1185 15.7375 19.0269C15.8883 18.9353 16.0615 18.8872 16.2379 18.8878C16.3392 18.8887 16.4398 18.9049 16.5362 18.9358C16.7765 19.0157 16.9753 19.1876 17.0891 19.4138C17.2029 19.6401 17.2223 19.9022 17.1431 20.1427Z" fill="black"/>
<path d="M15.7228 15.9155C15.828 15.6078 15.8393 15.2758 15.7552 14.9616C15.6711 14.6475 15.4954 14.3655 15.2506 14.1515C15.0057 13.9375 14.7027 13.8011 14.3801 13.7598C14.0576 13.7186 13.73 13.7742 13.4391 13.9196C13.1483 14.065 12.9073 14.2937 12.7467 14.5765C12.5862 14.8594 12.5135 15.1836 12.5378 15.5078C12.5621 15.8321 12.6823 16.1419 12.8831 16.3976C13.084 16.6534 13.3564 16.8436 13.6657 16.9441C13.8323 17.0014 14.0072 17.0304 14.1834 17.0298C14.4381 17.0281 14.689 16.9683 14.9171 16.855C15.2984 16.6595 15.5877 16.3221 15.7228 15.9155ZM14.5948 16.2584C14.4832 16.3149 14.3614 16.3486 14.2366 16.3574C14.1118 16.3663 13.9864 16.3501 13.868 16.3098C13.7485 16.2719 13.6379 16.2101 13.5431 16.1282C13.4482 16.0463 13.3709 15.9459 13.316 15.8332C13.259 15.7215 13.2248 15.5996 13.2154 15.4746C13.206 15.3495 13.2215 15.2239 13.261 15.1049C13.3006 14.9859 13.3634 14.876 13.4458 14.7814C13.5282 14.6869 13.6286 14.6098 13.7411 14.5544C13.8726 14.4866 14.0184 14.4514 14.1663 14.4515C14.2688 14.4505 14.3708 14.4667 14.468 14.4995C14.5869 14.5385 14.697 14.6007 14.7917 14.6825C14.8865 14.7643 14.9641 14.8641 15.02 14.9761C15.077 15.0881 15.1112 15.2102 15.1207 15.3355C15.1302 15.4608 15.1147 15.5868 15.0752 15.706C15.0356 15.8253 14.9728 15.9355 14.8903 16.0303C14.8079 16.1252 14.7074 16.2027 14.5948 16.2584Z" fill="black"/>
<path d="M10.3685 16.1692C9.95563 16.0328 9.50553 16.066 9.11717 16.2614C8.72881 16.4569 8.434 16.7986 8.2976 17.2115C8.16121 17.6243 8.19439 18.0744 8.38986 18.4628C8.58532 18.8511 8.92706 19.1459 9.33989 19.2823C9.50705 19.3368 9.68178 19.3646 9.8576 19.3646C10.1105 19.3668 10.3604 19.3105 10.5879 19.2C10.7809 19.1044 10.9529 18.9711 11.0936 18.808C11.2343 18.6449 11.341 18.4553 11.4073 18.2503C11.4766 18.0455 11.5046 17.829 11.4898 17.6133C11.475 17.3976 11.4177 17.187 11.3211 16.9935C11.2245 16.8001 11.0907 16.6276 10.9272 16.4862C10.7637 16.3447 10.5738 16.237 10.3685 16.1692ZM10.7559 18.024C10.7188 18.1429 10.658 18.2531 10.5773 18.3479C10.4966 18.4428 10.3976 18.5204 10.2862 18.576C10.1176 18.6611 9.92764 18.6942 9.74028 18.6711C9.55292 18.648 9.37664 18.5698 9.23377 18.4464C9.09091 18.323 8.98791 18.16 8.93783 17.978C8.88774 17.7959 8.89284 17.6032 8.95246 17.424C9.03253 17.1845 9.20375 16.9862 9.42903 16.872C9.56185 16.8046 9.70866 16.7694 9.8576 16.7692C9.96033 16.7695 10.0623 16.7869 10.1593 16.8206C10.3975 16.9018 10.5938 17.0739 10.7056 17.2994C10.8174 17.5248 10.8354 17.7853 10.7559 18.024Z" fill="black"/>
<path d="M19.0001 11.513C18.5923 11.3964 18.1553 11.442 17.7804 11.6404C17.4055 11.8388 17.1219 12.1745 16.989 12.5773C16.8561 12.9801 16.8841 13.4186 17.0673 13.8012C17.2504 14.1837 17.5745 14.4806 17.9716 14.6296C18.1378 14.6831 18.3112 14.7108 18.4858 14.7119C18.8749 14.7105 19.2508 14.571 19.5467 14.3183C19.8425 14.0656 20.039 13.7161 20.1012 13.332C20.1633 12.9479 20.0871 12.5542 19.8861 12.2211C19.6851 11.888 19.3723 11.6371 19.0036 11.513H19.0001ZM19.391 13.3713C19.336 13.539 19.2356 13.6881 19.1011 13.8023C18.9666 13.9165 18.8031 13.9912 18.6287 14.0183C18.4544 14.0453 18.2759 14.0236 18.1131 13.9556C17.9503 13.8875 17.8095 13.7757 17.7063 13.6326C17.6031 13.4895 17.5415 13.3206 17.5282 13.1447C17.515 12.9687 17.5507 12.7925 17.6314 12.6356C17.7121 12.4787 17.8346 12.3471 17.9854 12.2555C18.1362 12.1639 18.3094 12.1158 18.4858 12.1164C18.5871 12.1173 18.6877 12.1335 18.7841 12.1644C19.0244 12.2443 19.2232 12.4162 19.337 12.6424C19.4508 12.8687 19.4702 13.1308 19.391 13.3713Z" fill="black"/>
</svg>
