<svg width="24" height="24" viewBox="0 0 24 24" fill="none" xmlns="http://www.w3.org/2000/svg">
<path fill-rule="evenodd" clip-rule="evenodd" d="M7.2595 6.75H5.93099C5.01299 6.75 4.25099 7.4595 4.18549 8.3755L3.3285 20.3755C3.294 20.86 3.46199 21.337 3.79299 21.6925C4.12449 22.048 4.588 22.25 5.074 22.25H18.926C19.412 22.25 19.8755 22.048 20.207 21.6925C20.538 21.337 20.706 20.86 20.6715 20.3755L19.8145 8.3755C19.749 7.4595 18.987 6.75 18.069 6.75H16.75V6.5C16.75 3.8765 14.6235 1.75 12 1.75C9.47249 1.75 7.13649 3.763 7.24999 6.5C7.25349 6.583 7.2565 6.6665 7.2595 6.75ZM16.75 8.25V12C16.75 12.414 16.414 12.75 16 12.75C15.586 12.75 15.25 12.414 15.25 12V8.25H8.74999V12C8.74999 12.414 8.41399 12.75 7.99999 12.75C7.58599 12.75 7.24999 12.414 7.24999 12C7.24999 12 7.315 10.2475 7.2935 8.25H5.93099C5.79999 8.25 5.691 8.35149 5.682 8.48199L4.82449 20.482C4.81949 20.5515 4.8435 20.6195 4.891 20.6705C4.9385 20.721 5.0045 20.75 5.074 20.75H18.926C18.9955 20.75 19.0615 20.721 19.109 20.6705C19.1565 20.6195 19.1805 20.5515 19.1755 20.482L18.318 8.48199C18.309 8.35149 18.2 8.25 18.069 8.25H16.75ZM15.25 6.75V6.5C15.25 4.705 13.795 3.25 12 3.25C10.205 3.25 8.74999 4.705 8.74999 6.5V6.75H15.25Z" fill="currentColor"/>
</svg>
