<svg width="24" height="25" viewBox="0 0 24 25" fill="none" xmlns="http://www.w3.org/2000/svg">
<path fill-rule="evenodd" clip-rule="evenodd" d="M5 6.75C4.27065 6.75 3.57118 7.03973 3.05546 7.55546C2.53973 8.07118 2.25 8.77065 2.25 9.5V18.5C2.25 19.2293 2.53973 19.9288 3.05546 20.4445C3.57118 20.9603 4.27065 21.25 5 21.25H19C19.7293 21.25 20.4288 20.9603 20.9445 20.4445C21.4603 19.9288 21.75 19.2293 21.75 18.5V9.5C21.75 8.77065 21.4603 8.07118 20.9445 7.55546C20.4288 7.03973 19.7293 6.75 19 6.75H5ZM16.5 12.75C16.1685 12.75 15.8505 12.8817 15.6161 13.1161C15.3817 13.3505 15.25 13.6685 15.25 14C15.25 14.3315 15.3817 14.6495 15.6161 14.8839C15.8505 15.1183 16.1685 15.25 16.5 15.25C16.8315 15.25 17.1495 15.1183 17.3839 14.8839C17.6183 14.6495 17.75 14.3315 17.75 14C17.75 13.6685 17.6183 13.3505 17.3839 13.1161C17.1495 12.8817 16.8315 12.75 16.5 12.75Z" fill="currentColor"/>
<path d="M16.485 3.56903C16.7811 3.49013 17.0913 3.48031 17.3918 3.54034C17.6923 3.60037 17.9749 3.72863 18.218 3.91524C18.461 4.10184 18.6579 4.34179 18.7935 4.61657C18.9291 4.89136 18.9998 5.19362 19 5.50003H9L16.485 3.56903Z" fill="currentColor"/>
</svg>
