<svg width="24" height="24" viewBox="0 0 24 24" fill="none" xmlns="http://www.w3.org/2000/svg">
<path d="M8.61918 21.6C9.30198 21.6 9.48822 21.3307 9.48822 20.999C9.48822 20.7022 9.47766 19.9159 9.47238 18.8741C5.93454 19.6277 5.18838 17.1974 5.18838 17.1974C4.60974 15.755 3.77334 15.3691 3.77334 15.3691C2.62134 14.5944 3.86238 14.6102 3.86238 14.6102C5.13966 14.6971 5.81046 15.8981 5.81046 15.8981C6.94446 17.809 8.78766 17.257 9.51486 16.9378C9.62934 16.129 9.95694 15.5789 10.3203 15.2664C7.49574 14.9537 4.52694 13.879 4.52694 9.09048C4.52694 7.72632 5.0199 6.61152 5.8359 5.73696C5.69286 5.42112 5.2635 4.15032 5.94726 2.42904C5.94726 2.42904 7.01238 2.094 9.44478 3.7104C10.4624 3.43272 11.5433 3.29496 12.6245 3.28848C13.7057 3.29472 14.7867 3.43272 15.8043 3.7104C18.2209 2.094 19.286 2.42904 19.286 2.42904C19.9695 4.15032 19.5404 5.42112 19.4132 5.73696C20.2239 6.61128 20.7169 7.72632 20.7169 9.09048C20.7169 13.8917 17.744 14.9484 14.9139 15.2558C15.3591 15.631 15.7724 16.3973 15.7724 17.5685C15.7724 19.241 15.7565 20.585 15.7565 20.9909C15.7565 21.3185 15.8981 21.5844 16.6309 21.5844L8.61918 21.6Z" fill="#212121"/>
</svg>
